<svg id="Layer_1" data-name="Layer 1" xmlns="http://www.w3.org/2000/svg" viewBox="0 0 620.98 271.48">
  <defs>
    <style>
      .cls-1 {
        fill: none;
      }

      .cls-2 {
        fill: #352624;
      }

      .cls-3 {
        fill: #1c00ea;
      }
    </style>
  </defs>
  <title>404 V1</title>
  <g>
    <path d="M153,81.48a66.95,66.95,0,0,1-67,67A67,67,0,0,1,64.52,18L58.43,0A86,86,0,1,0,153,135.4v98.08h19v-152Z"/>
    <rect x="153" y="252.48" width="19" height="19"/>
  </g>
  <g>
    <circle id="face" class="cls-1" cx="534.98" cy="81.32" r="67.17"/>
    <ellipse id="left-eye" class="cls-2" cx="508.11" cy="61.17" rx="11.32" ry="8.87"/>
    <ellipse id="right-eye" class="cls-2" cx="561.85" cy="61.17" rx="11.32" ry="8.87"/>
    <path id="mouth" class="cls-2" d="M569.69,116.31c0-.3.09-.63.09-.92l-.44-.44-.88-.86-1.85-1.64c-.64-.51-1.28-1-1.93-1.54s-1.32-1-2-1.44a47.93,47.93,0,0,0-8.65-4.62,48.63,48.63,0,0,0-9.36-2.78,50.82,50.82,0,0,0-9.69-.92l-2.44,0-2.43.18-2.42.28c-.8.1-1.6.26-2.4.39a48.1,48.1,0,0,0-9.39,2.74,46.52,46.52,0,0,0-8.66,4.63c-.68.47-1.33,1-2,1.45s-1.27,1-1.91,1.56l-1.82,1.67-.87.87a1.16,1.16,0,0,0-.39,1.33h0a1.46,1.46,0,1,1-1.79-1,1.55,1.55,0,0,1,.64,0,1.19,1.19,0,0,0,1.34-.45l.87-.89,1.81-1.7,1.9-1.61c.65-.5,1.3-1,2-1.52a50,50,0,0,1,8.55-5.11,48.46,48.46,0,0,1,9.47-3.28c.82-.16,1.64-.34,2.47-.48s1.65-.26,2.49-.35l2.5-.21,2.52-.08a46.05,46.05,0,0,1,19.48,4.33A49.13,49.13,0,0,1,563,109c.66.49,1.3,1,2,1.53l1.87,1.63,1.79,1.73.85.9.43.46c.29,0,.64,0,1,0a1.23,1.23,0,1,1-1.18,1.26.75.75,0,0,1,0-.15Z"/>
    <path id="tear" class="cls-3" d="M571.94,61.17c-2.38,3.08-3.54,7.08-3,9,.72,2.87,5.24,2.59,5.89-.83C575.2,67.22,574.09,63.56,571.94,61.17Z"/>
  </g>
  <g>
    <path d="M602,81.48a66.95,66.95,0,0,1-67,67A67,67,0,0,1,513.5,18L507.41,0A86,86,0,1,0,602,135.4v98.08h19v-152Z"/>
    <rect x="601.98" y="252.48" width="19" height="19"/>
  </g>
  <path d="M264.84,67.58a86,86,0,0,1,119.06,121l-15.34-11.2a67,67,0,1,0-114-9.45l-17,8.54A86,86,0,0,1,264.84,67.58Z"/>
</svg>
