<svg id="Layer_1" data-name="Layer 1" xmlns="http://www.w3.org/2000/svg" viewBox="0 0 1101.79 1101.79">
  <defs>
    <style>
      .cls-1 {
        fill: #01011c;
      }
    </style>
  </defs>
  <title>logo</title>
  <g>
    <path class="cls-1" d="M376.54,358.31C299,158,309.76,84.07,342,58.32c92.23-73.56,465.35,162.51,441,318C766.82,479.65,539,493.18,484.11,633.2,437.88,751.1,558.84,875.3,627,973.28,371,776,338.18,666.57,357,602.79c37.48-126.74,291.68-115.56,309-229.48,16.18-106.52-184.5-258.22-259.49-216C355.32,186.16,367.86,302.55,376.54,358.31Z"/>
    <path class="cls-1" d="M627,973.28c17.5,40,5.5,75,16,80.5,21.13,11.06,47-5.46,46.5-27C689.06,1005,663.53,990.78,627,973.28Z"/>
  </g>
</svg>
